<svg xmlns="http://www.w3.org/2000/svg" width="999" height="1000" fill-rule="evenodd" clip-rule="evenodd" image-rendering="optimizeQuality" shape-rendering="geometricPrecision" text-rendering="geometricPrecision" viewBox="0 0 945.63 946.15"><path fill="#fff" fill-rule="nonzero" d="M740.37 167.4c-9.5-7.96-14-17.11-13.54-27.44.45-10.08 5.71-21.11 15.77-33.1a67.43 67.43 0 0117.15-14.6 42.44 42.44 0 0115.15-5.53 41.8 41.8 0 016.31-.46c3.92 0 7.75.76 11.5 2.27a37.64 37.64 0 014.83 2.4 44.98 44.98 0 016 4.28l.02.02a68.03 68.03 0 012.97 2.67v-.01a43.43 43.43 0 016.02 7 66.18 66.18 0 011.73 2.7 56.3 56.3 0 013.63 7.16l.03.06.02.04v.03a7.21 7.21 0 01.32 1.1 7.94 7.94 0 01-.55 4.83 7.46 7.46 0 01-3.37 3.6v.01a8.15 8.15 0 01-5.9.62 7.8 7.8 0 01-2.73-1.51c-.39-.32-.75-.7-1.1-1.1h-.01a8.5 8.5 0 01-.88-1.28l-.1-.18a35.87 35.87 0 00-4.15-6.84 38.08 38.08 0 00-5.7-5.9 33.7 33.7 0 00-2.85-2.16 26.12 26.12 0 00-2.79-1.64c-4.59-2.3-9.15-2.65-13.67-1.02a44.05 44.05 0 00-13.24 7.55c2.1.11 4.28.43 6.5.97l.01-.01c2.5.6 5.03 1.6 7.6 3a46.91 46.91 0 017.6 5.26 36.76 36.76 0 016 6.35 29.95 29.95 0 013.96 7.23l.02.05v.01a29.36 29.36 0 011.25 4.33c.77 3.76.76 7.6-.02 11.5a31.2 31.2 0 01-2.8 7.99 39.43 39.43 0 01-5.02 7.52 32.61 32.61 0 01-6.1 5.66 30.45 30.45 0 01-7.23 3.8l-.06.02a29.12 29.12 0 01-4.46 1.22c-3.83.73-7.79.67-11.87-.19h-.02a31.85 31.85 0 01-4.74-1.39c-3.96-1.49-7.8-3.79-11.5-6.89zm-422.1-64.69l.44.1 80.21 18.81.44.1 77.65 18.2v-22.06L320.66 81.2l-33.88 14.13 31.49 7.38zM489.8 314.53l32.17-82.84.16-.4 36.66-94.4-69 16.17v161.47zm80.93-173.15l-31.77 81.8 71.34-25.01-39.57-56.79zm-37.85 97.46l-38.52 99.19L581 307.65c.2-.08.41-.16.63-.22l84.24-29.54-47.98-68.86-85 29.81zm-43.08 263.02l38.58-83.89c.06-.16.13-.32.21-.47l42.74-92.94-81.53 28.6v148.7zm95.2-176.5l-38.64 84.04 84.56-29.66-45.91-54.39zm-46.06 100.16l-43.47 94.53 99.25-34.8.48-.18 96.17-33.72-51.64-61.17-100.79 35.34zm-49.14 264.26l94.45-187.34-94.45 33.12v154.22zm108.9-187.63l-51.52 102.17 111.29-39.03-59.78-63.14zm-59.8 118.6l-42.68 84.64L608.61 666c.17-.08.34-.14.52-.19l108.48-38.04-49.52-52.32-129.18 45.3zm158.15-157.87l-88.59 31.06 65.72 69.42c.21.2.42.42.6.65l44.83 47.34-22.56-148.47zM567.42 121.73l.48-.11 80.1-18.78c.19-.05.38-.1.57-.13l31.46-7.38-33.87-14.13-156.35 36.66v22.07l77.6-18.2zm12.35 10.24l85.7 122.98L644.5 116.8l-64.72 15.18zm-23.27 651.5l119.8-42.02-63.69-59.3-56.11 101.31zm-66.7 94.07l107.5-194.07-107.5 37.7v156.37zM723.84 639.1l-100.76 35.33 123.61 115.13-22.85-150.46zm26.77 176.22l-260.8 91.46v32.97a6.4 6.4 0 01-12.8 0v-32.97l-260.79-91.46-4.64 30.56a6.4 6.4 0 01-12.65-1.9l110.9-730.12-45.2-10.6a6.4 6.4 0 01-.82-12.19l53.75-22.42.24-.1 53.78-22.43.26-.1 53.76-22.43.3-.12L480.6.65a6.38 6.38 0 015.6 0l54.73 22.82.3.12 53.76 22.42.26.11 53.78 22.43.24.1 53.75 22.42a6.39 6.39 0 01-.83 12.2l-45.2 10.6 110.91 730.1a6.4 6.4 0 01-12.65 1.9l-4.64-30.55zM497.1 890.7l246.58-86.47-56.84-52.94-139.64 48.97-50.1 90.44zm97.17-574.17l98.24 116.37-21.75-143.2-76.49 26.83zM322.32 116.79l-20.99 138.16 85.72-122.98-64.73-15.18zm85.7 20.1l36.7 94.5.08.22 32.2 82.92V153.06l-68.99-16.18zM477 104.72V82.65L374.69 58.67 340.8 72.8l136.2 31.93zm0-35.2V47.44l-48.3-11.32-33.87 14.13 82.17 19.26zm0-35.2V15.98l-28.14 11.74 28.14 6.6zm12.8-18.34v18.33l28.13-6.6L489.81 16zm0 31.46v22.07l82.16-19.26-33.87-14.13-48.3 11.32zm0 35.2v22.08L626 72.8l-33.88-14.13L489.8 82.65zM477 353.15l-81.54-28.6 42.76 93 .17.35 38.6 83.96v-148.7zm0 182.41l-94.46-33.12 94.46 187.34V535.56zm0 185.6l-107.5-37.69 60.03 108.37.1.18L477 877.54V721.17zm-7.3 169.53l-50.1-90.45-139.64-48.96-56.84 52.94 246.58 86.47zM300.94 277.9l84.26 29.55c.2.05.4.12.6.2l86.64 30.39-38.52-99.2-85-29.8-47.98 68.86zm55.56-79.73l71.34 25.02-31.77-81.8-39.57 56.78zm25.3 127.2l-45.92 54.38 84.56 29.66-38.65-84.05zm46.06 100.16l-100.79-35.34-51.64 61.17 96.2 33.73.43.15 99.27 34.82-43.47-94.53zm-59.75 76.63l-59.78 63.14 111.29 39.03-51.51-102.17zm59.8 118.6l-129.19-45.3-49.52 52.3 108.42 38.03c.21.06.41.13.61.21l112.35 39.4-42.68-84.65zm-73.71 61.4l-63.68 59.3 119.8 42.01-56.12-101.32zM242.98 639.1l-22.85 150.46 123.6-115.13-100.75-35.33zm26.77-176.22L247.2 611.35 292 564.01c.2-.23.4-.45.61-.65l65.72-69.42-88.6-31.06zm102.79-146.36l-76.48-26.82-21.76 143.19 98.24-116.37zM152.05 669.97l.03.05a9.23 9.23 0 01.64 1.7c.4 1.5.35 3.03-.14 4.55a8.06 8.06 0 01-4.13 4.79l-69.51 35.42h-.02l-.04.02a9.54 9.54 0 01-1.7.65c-1.49.4-3 .36-4.54-.11h-.02a8.94 8.94 0 01-1.7-.73 7.94 7.94 0 01-3.19-3.38v-.02l-.02-.05a8.9 8.9 0 01-.38-.84V712a8.12 8.12 0 01-.1-5.47 8.3 8.3 0 014.15-4.88l27.7-14.1-19.43-38.14-27.7 14.1a8.36 8.36 0 01-6.3.56v.02l-.01-.02a8.34 8.34 0 01-1.7-.72 7.94 7.94 0 01-3.19-3.38l-.01-.05-.01-.02a8.9 8.9 0 01-.38-.84v-.01a8.12 8.12 0 01-.1-5.47 8.34 8.34 0 014.16-4.88l69.51-35.41a8.05 8.05 0 016.37-.45h.04a8.35 8.35 0 011.64.77v.01a8.25 8.25 0 013.1 3.38 8.04 8.04 0 01.52 6.3 8.04 8.04 0 01-4.12 4.8l-27.69 14.1 19.43 38.14 27.7-14.1.06-.03v-.01a9.06 9.06 0 011.73-.64c1.5-.38 3.03-.3 4.57.23h.03a9.32 9.32 0 011.65.78 8.25 8.25 0 013.1 3.38v.01zM108.41 566l.09.41v.02c.41 1.89.62 3.78.62 5.67l-.02.94a25.19 25.19 0 01-.6 4.6v.02a20.53 20.53 0 01-10.15 13.6 22.56 22.56 0 01-5.7 2.12c-3.44.8-6.7.83-9.78.1a20.86 20.86 0 01-8.64-4.49h-.02v-.01a26.5 26.5 0 01-4.08-4.4c-3.07-4.2-5.43-9.83-7.05-16.84l-2.85-12.38-.5.15c-.65.2-1.23.41-1.75.62-2.6 1.07-4.4 2.5-5.37 4.3-.7 1.26-1.1 2.81-1.19 4.64-.1 1.98.15 4.27.75 6.88.34 1.48.72 2.87 1.15 4.16.42 1.29.86 2.46 1.34 3.5a57.78 57.78 0 001.74 3.47c.66 1.23 1.4 2.5 2.2 3.81l.1.18a12.74 12.74 0 01.83 2.13 7.02 7.02 0 01-.94 5.43l-.02.02a7.67 7.67 0 01-1 1.27 7.21 7.21 0 01-3.6 1.98 7.5 7.5 0 01-4.51-.26 7.96 7.96 0 01-3.54-2.85 60.7 60.7 0 01-6.02-10.23 56.54 56.54 0 01-3.76-11l-.1-.48-.02-.02a41.5 41.5 0 01-.75-4.86 28.2 28.2 0 011.05-11.12v-.02a29.85 29.85 0 011.54-3.85 23.82 23.82 0 016.22-8.01 28.65 28.65 0 015.74-3.73 30.42 30.42 0 016.56-2.32l34.87-8.05a8.06 8.06 0 016.29 1.1l.02.02a9.07 9.07 0 011.4 1.14 8.27 8.27 0 012.2 4.05 8.05 8.05 0 01-1.01 6.23l-.02.02c-.17.29-.35.54-.51.75h-.01a7.86 7.86 0 01-2.6 2.15c.6.52 1.2 1.06 1.76 1.62 4.76 4.64 7.97 10.57 9.64 17.8v.02zm-15.8-.8l-.01-.01a20.15 20.15 0 00-.8-2.62 20.85 20.85 0 00-3.71-6.14 29.55 29.55 0 00-3.72-3.64 25.9 25.9 0 00-3.27-2.29l-6.91 1.6 2.53 10.94v.02l.01.03c.38 1.67.8 3.2 1.24 4.57.45 1.37.92 2.6 1.42 3.7 2.2 4.84 4.98 6.88 8.3 6.12a7.92 7.92 0 002.9-1.26 6.49 6.49 0 001.87-2.15c.48-.87.75-1.99.8-3.35.05-1.55-.17-3.39-.66-5.52zm1.63-66.7v.24a9.33 9.33 0 01-.2 1.79 7.91 7.91 0 01-2.08 3.81l-.03.03-.15.15-.04.04a8.19 8.19 0 01-1.41 1.1 8.11 8.11 0 01-4.19 1.18l-54.23.94H31.62a9.42 9.42 0 01-1.78-.2 8.2 8.2 0 01-3.85-2.05l-.03-.03-.15-.15-.03-.03a8.4 8.4 0 01-1.14-1.41 7.97 7.97 0 01-1.24-4.23v-.28a8.93 8.93 0 01.21-1.8v-.01a8.14 8.14 0 012.14-3.85 8.34 8.34 0 015.04-2.51l-.75-.85a41.27 41.27 0 01-4.04-5.66v-.01l-.1-.16v-.01a25.74 25.74 0 01-1.73-3.62 30.86 30.86 0 01-1.91-10.55c-.09-5.14 1.06-9.64 3.45-13.51a23.67 23.67 0 014.27-5.14 24.89 24.89 0 015.6-3.8h.01l.19-.1a29.27 29.27 0 013.56-1.47 32.28 32.28 0 019.81-1.64l35.9-.62a8.06 8.06 0 015.93 2.39l.03.02.15.16.02.03c.24.25.43.48.58.67v.01a8.28 8.28 0 011.68 4.94V452.6a9.33 9.33 0 01-.2 1.78 7.92 7.92 0 01-2.09 3.82 8.07 8.07 0 01-5.81 2.5l-34.63.6h-.23c-4.37.1-7.57 1.1-9.59 3-1.94 1.81-2.9 4.6-2.86 8.38v.4a20.55 20.55 0 00.3 3v.01c.45 2.4 1.36 4.63 2.74 6.65l.02.02a29.98 29.98 0 001.9 2.5 40.7 40.7 0 005.85 5.62l37.02-.65a8.06 8.06 0 015.93 2.39l.02.02.15.15.03.04a8.9 8.9 0 011.09 1.44 8.27 8.27 0 011.16 4.19v.04zM18.42 401.2v.03a8.97 8.97 0 01-3.5 5.9l-.02.01-.02.02a9.46 9.46 0 01-1.69 1.01c-1.54.71-3.18.94-4.93.7l-.5-.07a8.87 8.87 0 01-5.93-3.5 8.86 8.86 0 01-1.73-6.66l.1-.76v-.03a9.5 9.5 0 01.5-1.92 8.74 8.74 0 013-3.98h.02l.02-.03a9.55 9.55 0 011.69-1 8.68 8.68 0 014.93-.7l.5.07h.03a9.54 9.54 0 011.93.49c1.58.6 2.9 1.6 3.97 3.01a8.87 8.87 0 011.74 6.66l-.1.75zm77.55 10.64v.04a9.08 9.08 0 01-.45 1.76v.01a7.92 7.92 0 01-2.74 3.66 8.06 8.06 0 01-6.12 1.56l-53.72-7.55h-.03a9.29 9.29 0 01-1.77-.45 8.2 8.2 0 01-3.7-2.71l-.02-.02-.01-.03a8.66 8.66 0 01-.95-1.54 7.93 7.93 0 01-.66-4.58 8.8 8.8 0 011.03-3.14 7.95 7.95 0 012.16-2.45H29l.02-.02h.01a7.86 7.86 0 011.58-.93 8.36 8.36 0 014.63-.59l53.72 7.55a8.05 8.05 0 015.49 3.28v.02l.02.02a8.36 8.36 0 01.9 1.58c.62 1.41.82 2.93.6 4.53zm34.35-31.55v.01l-.01.01a8.26 8.26 0 01-.69 1.7 7.88 7.88 0 01-3.33 3.26h-.02l-.02.03a9.18 9.18 0 01-1.69.66c-1.49.41-3.01.4-4.56-.05l-80.1-22.96a8.05 8.05 0 01-4.97-3.93l-.02-.04a8.12 8.12 0 01-.67-6.23v-.01l.02-.01a9.28 9.28 0 01.67-1.69 8.18 8.18 0 013.2-3.3 8.06 8.06 0 014.15-1.1 30.56 30.56 0 01-1.08-20.43v-.02a32.5 32.5 0 011.63-4.42 32.55 32.55 0 016.96-9.87l.04-.04.01-.01a31.73 31.73 0 013.72-3.1 33.92 33.92 0 0111.74-5.25 34.47 34.47 0 019.58-.92c3.29.13 6.66.7 10.12 1.68h.01a48.53 48.53 0 015.54 1.97 35.76 35.76 0 0111.58 7.84l.02.02v.01a38.64 38.64 0 013.33 3.9c2.57 3.5 4.35 7.3 5.34 11.4l.01.01.06.23a34.7 34.7 0 01.75 4.7c.37 3.98 0 7.9-1.1 11.73v.02a33.09 33.09 0 01-2.8 6.76 30.9 30.9 0 01-8.66 9.77l25.5 7.31v.02a9.98 9.98 0 011.74.68 7.94 7.94 0 013.34 3.25c.55 1 .88 2.04.98 3.14.1 1.07 0 2.16-.32 3.27zm-35.48-37.01l.01-.03a20.97 20.97 0 00.82-4.38c.27-3.53-.44-6.76-2.15-9.7a15.44 15.44 0 00-2.43-3.15c-2.51-2.53-6.07-4.46-10.66-5.78l-.1-.02a28.96 28.96 0 00-5.17-1.04c-4.04-.45-7.56.11-10.57 1.7-4.21 2.21-7.08 5.97-8.6 11.26a21.4 21.4 0 00-.47 10.05v.02a29.93 29.93 0 00.7 2.85c.64 2.1 1.5 4.1 2.6 6.02l23.59 6.76a29.01 29.01 0 007.5-5.8h.02v-.01h.01a22.08 22.08 0 001.78-2.2 21.47 21.47 0 003.11-6.54l.01-.01zm48.95-74.5a42.44 42.44 0 01-9.34 11.48 30.14 30.14 0 01-11.85 6.17h-.02l-.04.02a29.5 29.5 0 01-7.47.95c-6.43 0-13.15-2.03-20.15-6.08h-.01a46.84 46.84 0 01-7.47-5.31 41.57 41.57 0 01-6-6.5l-.02-.03-.01-.02a32.6 32.6 0 01-2.63-4.18 30.7 30.7 0 01-3.4-12c-.24-3.01.04-6.07.84-9.17a36.76 36.76 0 013.85-9.2 35.97 35.97 0 015.71-7.54 29.18 29.18 0 017.2-5.29l.05-.02a32.72 32.72 0 014.45-1.9 30.7 30.7 0 0112.1-1.52c2.9.2 5.73.74 8.5 1.61a40.5 40.5 0 018.07 3.57h.01l.05.04a9.44 9.44 0 011.46 1.05 7.98 7.98 0 012.41 3.83v.01c.32 1.09.39 2.2.22 3.3a9.08 9.08 0 01-1.15 3.16v.01l-19.93 34.5c1.5.47 2.96.75 4.38.87 2.2.17 4.32-.08 6.33-.75a14.34 14.34 0 003.23-1.55c2.74-1.75 5.21-4.52 7.4-8.31h.01a43.49 43.49 0 002.14-4.2 28.77 28.77 0 002.22-7.52c.21-1.29.36-2.58.44-3.9a7.2 7.2 0 011.04-3.34v-.01a7.68 7.68 0 014.42-3.53h.01l.03-.01a7.49 7.49 0 011.67-.32 7.2 7.2 0 014.16 1.01 6.82 6.82 0 011.84 1.54c1.22 1.47 1.83 3.42 1.83 5.86V246a56.2 56.2 0 01-.14 3.21 45.7 45.7 0 01-1.18 7.49 35.82 35.82 0 01-1.99 5.7 65 65 0 01-3.27 6.39zm-31.38-33.5c-.8-.29-1.58-.52-2.34-.7-1.51-.33-2.98-.45-4.42-.34h-.05a18.17 18.17 0 00-2.36.35c-1.9.4-3.61 1.15-5.14 2.2a18.4 18.4 0 00-2.96 2.56 16.28 16.28 0 00-3.7 6.4c-.36 1.18-.6 2.46-.72 3.83a13.6 13.6 0 00.21 3.86 15.83 15.83 0 005.7 9.2l15.78-27.35zm62.91-14.52l-.02.03v.02a9.13 9.13 0 01-1.3 1.28 7.93 7.93 0 01-4.23 1.72 8.05 8.05 0 01-6.05-1.83l-42.15-34.13-.03-.02a8.7 8.7 0 01-1.28-1.29h-.01a8.19 8.19 0 01-1.77-4.23v-.03a8.71 8.71 0 01-.02-1.83v-.01a7.93 7.93 0 011.8-4.27l.02-.03a8.9 8.9 0 011.31-1.3 8.13 8.13 0 014.3-1.72h.04a9.02 9.02 0 012.52.1c.88.19 1.72.51 2.52.98-.23-2.51-.2-4.89.13-7.12a22.59 22.59 0 014.82-11.25l.4-.5a7.77 7.77 0 015.55-3h.05a8.82 8.82 0 011.8.06c1.48.2 2.85.82 4.11 1.83h.01l.05.04v.01a9.09 9.09 0 011.28 1.3 7.41 7.41 0 011.61 4.22 8.01 8.01 0 01-.42 3.15 9.27 9.27 0 01-1.6 2.82l-.4.49a18.73 18.73 0 00-4.14 9.29 22.3 22.3 0 00-.16 5.23c.13 1.54.42 3.08.86 4.6l29.26 23.7a7.86 7.86 0 013.01 5.65v.05a9.15 9.15 0 01-.04 1.81 8.27 8.27 0 01-1.83 4.18zm38.18-42.97l-.04.03v.01a9.07 9.07 0 01-1.51 1.01 7.92 7.92 0 01-4.47.89 8.05 8.05 0 01-5.6-2.96l-52.74-62.86-.04-.04-.01-.02a8.52 8.52 0 01-1-1.5 8.19 8.19 0 01-.93-4.45v-.08c.03-.28.07-.59.13-.91v-.01a7.95 7.95 0 012.78-4.7l.03-.02.02-.02a8.4 8.4 0 011.54-1.02 8.11 8.11 0 014.52-.87h.05l.02.02a9.38 9.38 0 011.8.35 8.11 8.11 0 013.82 2.6l29.49 35.14 4.43-34.86.01-.08c.18-1.08.48-2.05.9-2.9a7.27 7.27 0 011.83-2.36h.01l.01-.02a11.7 11.7 0 011.63-1.13 6.87 6.87 0 014.78-.86h.03a8.57 8.57 0 014.98 3.02c.71.84 1.2 1.86 1.5 3.04.24 1.06.32 2.23.2 3.5l-.01.13-3.13 21.88 34.74 8 .75.2.7.25a7.67 7.67 0 013.1 2.2l.01.02.03.02a9.77 9.77 0 011.03 1.54 7.43 7.43 0 01.85 4.54 8.05 8.05 0 01-1.02 3.04 9.25 9.25 0 01-3.68 3.48 8.78 8.78 0 01-3.4.86h-.01a8.82 8.82 0 01-2.31-.18l-.06-.02-32.93-8.02-1.47 10.8 9.76 11.63.01.03h.01a9.14 9.14 0 011.03 1.54c.72 1.4 1 2.9.82 4.53v.05a8.81 8.81 0 01-.4 1.78 8.26 8.26 0 01-2.59 3.76zm537.15-22.47a21 21 0 004.1 2.72c1.38.69 2.8 1.17 4.23 1.46l.06.01a17.63 17.63 0 002.4.3c1.98.1 3.9-.18 5.73-.86a15.29 15.29 0 006.6-4.66h.01l.05-.07a25.95 25.95 0 002.35-3.36c1.6-2.77 2.32-5.6 2.18-8.46-.2-3.96-2.37-7.68-6.51-11.15l-.01-.01-.01-.01c-1.1-.92-2.2-1.74-3.3-2.44-1.1-.7-2.2-1.3-3.32-1.81-5.43-2.45-11.17-2.56-17.23-.33a43.15 43.15 0 00-2.35 4.48 30.22 30.22 0 00-1.69 4.76c-1.94 7.56.3 14.04 6.71 19.43zm51.3 77.2a8.03 8.03 0 01-1.83-6.05v-.05a8.54 8.54 0 01.4-1.76 8.1 8.1 0 012.64-3.73l11.39-9.22-22.66-27.98-.02-.03-.02-.02a11 11 0 01-1.18-1.81 9.61 9.61 0 01-.98-5.31c.12-1.35.48-2.6 1.08-3.7a9.66 9.66 0 012.47-2.95l.89-.72c.9-.73 1.86-1.29 2.87-1.67a9.23 9.23 0 013.19-.58l64.33-1.06h.07a9.37 9.37 0 014.55.96 10.77 10.77 0 013.8 3l1.59 1.95a9.52 9.52 0 011.07 10.98 10.5 10.5 0 01-2.53 2.92l-36.14 29.28 4.44 5.48a7.65 7.65 0 011.69 5.67l-.01.04a8.14 8.14 0 01-.37 1.68 7.5 7.5 0 01-2.45 3.49 7.4 7.4 0 01-5.68 1.63 7.69 7.69 0 01-5.1-2.85l-4.45-5.49-11.38 9.22a8.07 8.07 0 01-6.14 1.78 8.36 8.36 0 01-5.53-3.1zm8.24-50.57l16.28 20.1 25.93-20.99-42.2.89zM832 285.52l-.05-.1a43.66 43.66 0 01-2.02-4.35 37.06 37.06 0 01-1.41-4.36 30.43 30.43 0 012.32-21.77A46.28 46.28 0 01841 241.6a75.6 75.6 0 0116.03-11.11 75.64 75.64 0 0118.18-7.08 46.28 46.28 0 0116.73-.99h.03c1.54.21 3 .5 4.38.88 1.41.38 2.78.86 4.1 1.43 6.77 2.91 12.17 8.17 16.2 15.76v.01l.06.1a43.2 43.2 0 012 4.33 36.6 36.6 0 011.4 4.33 30.57 30.57 0 01-2.32 21.75 46.14 46.14 0 01-10.16 13.38 75.1 75.1 0 01-16.03 11.13 75.12 75.12 0 01-18.19 7.06 46.1 46.1 0 01-16.75.94h-.03a34.3 34.3 0 01-8.49-2.32c-6.76-2.92-12.15-8.15-16.16-15.69zm13.9-7.38a17.44 17.44 0 005.74 6.56c2.3 1.52 5.06 2.4 8.27 2.66 3.35.26 6.99-.14 10.92-1.2a62.6 62.6 0 0013-5.31 61.86 61.86 0 0011.58-7.75 32.4 32.4 0 007.07-8.38 17.25 17.25 0 002.42-8.34c.03-2.76-.71-5.57-2.23-8.43a17.43 17.43 0 00-5.74-6.57 17.26 17.26 0 00-8.28-2.65c-3.34-.27-6.98.13-10.9 1.17-4 1.07-8.3 2.83-12.9 5.28a62.65 62.65 0 00-11.68 7.79 32.37 32.37 0 00-7.09 8.39 17.25 17.25 0 00-2.42 8.34c-.03 2.76.71 5.57 2.24 8.44zm15.7 80.05v-.02a9.34 9.34 0 01-.15-1.77c.03-1.58.5-3.04 1.4-4.36a8.06 8.06 0 012.28-2.28c.9-.58 1.9-.98 3.01-1.2l53.25-10.34a8.18 8.18 0 016.21 1.2h.02l.01.01a8.74 8.74 0 011.42 1.17 7.92 7.92 0 012.12 4.13v.02a8.92 8.92 0 01.16 1.83 8.13 8.13 0 01-1.44 4.41 8.05 8.05 0 01-3.84 3.12 33.55 33.55 0 014.57 3.9l.03.04.01.01a19.32 19.32 0 012.41 3.03 28.84 28.84 0 013.93 10.32c.5 2.57.62 5.04.36 7.4-.27 2.4-.93 4.67-1.97 6.83a25.38 25.38 0 01-3.67 5.63c-.45.5-.92 1-1.4 1.46l.05.03c1.26.66 2.48 1.4 3.64 2.25 5.88 4.23 9.58 10.3 11.12 18.23.5 2.55.63 4.98.4 7.28a19.52 19.52 0 01-1.82 6.6 24.6 24.6 0 01-1.83 3.15 23.8 23.8 0 01-6.67 6.5h-.02a33.45 33.45 0 01-11.89 4.82l-35.74 6.95a8.05 8.05 0 01-6.25-1.32 8.34 8.34 0 01-3.44-5.33 8.05 8.05 0 011.23-6.2h.01l.01-.02c.17-.24.35-.48.56-.72h-.01a8.08 8.08 0 014.73-2.72l33.51-6.52h.02a38.62 38.62 0 003.85-.96c2.76-.88 4.77-2.01 6.01-3.4h.01l.02-.02a5.72 5.72 0 00.98-1.56c.72-1.69.8-3.95.26-6.77a17.09 17.09 0 00-1.69-4.9 12.21 12.21 0 00-2.79-3.49 29.43 29.43 0 00-8.62-5l-36.53 7.1a8.05 8.05 0 01-6.25-1.32l-.02-.02a9.01 9.01 0 01-1.36-1.2h-.01a8.26 8.26 0 01-2.05-4.11 8.06 8.06 0 011.23-6.19 8.06 8.06 0 012.29-2.28c.9-.58 1.9-.98 3.01-1.2l33.51-6.5c2.5-.5 4.6-1.12 6.28-1.89a10.8 10.8 0 003.6-2.48 6.25 6.25 0 001.47-3.16c.25-1.45.19-3.18-.2-5.19a20.45 20.45 0 00-.81-2.94 12.87 12.87 0 00-3.67-5.45 26.26 26.26 0 00-4.16-2.9 33.67 33.67 0 00-4.46-2.1l-36.53 7.1a8.12 8.12 0 01-6.25-1.32l-.02-.02-.02-.01a8.98 8.98 0 01-1.34-1.17l-.01-.01a8.27 8.27 0 01-2.05-4.12l-.01-.04zm11 133.25v-.03l.02-.01a9.43 9.43 0 01.4-1.76v-.01a7.92 7.92 0 012.68-3.7l.02-.02.02-.02c.25-.2.5-.36.75-.52a8.1 8.1 0 015.3-1.12l53.84 6.62a8.35 8.35 0 015.55 3.06 8.04 8.04 0 011.76 6.14v.04h-.01a9.1 9.1 0 01-.42 1.8 8.13 8.13 0 01-2.73 3.74 8.34 8.34 0 01-5.33 1.78 41.64 41.64 0 013.83 7.11c.91 2.2 1.51 4.53 1.8 7 .27 2.45.25 5.02-.08 7.73-.31 2.5-.9 4.83-1.8 7a22.52 22.52 0 01-3.51 5.9 23.64 23.64 0 01-4.95 4.5 24.86 24.86 0 01-6.07 2.98h-.02l-.04.02a29.55 29.55 0 01-3.72.98c-3.24.62-6.6.72-10.1.3l-35.64-4.39a7.86 7.86 0 01-5.54-3.2 8.36 8.36 0 01-1.63-6.11v-.03l.01-.01a9.23 9.23 0 01.4-1.77h.01a7.92 7.92 0 012.67-3.7 7.96 7.96 0 016.1-1.68l34.39 4.23h.02c1.34.16 2.56.23 3.66.2 1.08-.02 2.08-.14 2.99-.34 4.32-.96 6.82-4.14 7.48-9.56.23-1.87.2-3.65-.06-5.33-.27-1.68-.8-3.3-1.57-4.86a30.19 30.19 0 00-1.54-2.77 40.7 40.7 0 00-5-6.36l-36.77-4.51a8.16 8.16 0 01-5.54-3.2l-.02-.03a8.31 8.31 0 01-1.6-6.1zm-11.86 68.88a9.5 9.5 0 014.5-5.84 9.46 9.46 0 017.3-.98l.74.2a9.28 9.28 0 015.83 4.5h.01l.01.03a9.66 9.66 0 01.85 1.94c.56 1.74.6 3.51.11 5.33l-.33 1.22a9.49 9.49 0 01-4.5 5.84 9.48 9.48 0 01-7.3.98l-.73-.2a9.46 9.46 0 01-5.83-4.5 9.48 9.48 0 01-.98-7.3l.32-1.22zm-15.88 52.04v-.02h.01a9.18 9.18 0 011.04-1.5 7.94 7.94 0 013.89-2.46 8.04 8.04 0 016.27.76l47.44 26.3h.02a8.8 8.8 0 011.5 1.04 8.2 8.2 0 012.48 3.86 8.03 8.03 0 01-.68 6.36 8.07 8.07 0 01-5.01 3.99h-.04a8.88 8.88 0 01-1.83.32 7.9 7.9 0 01-3.08-.42c.52 1.95.85 3.94 1 5.95v.05a21.17 21.17 0 01-.1 3.9 28.9 28.9 0 01-3.63 10.4 24.48 24.48 0 01-4.48 5.9 20.82 20.82 0 01-5.9 3.97 25.34 25.34 0 01-8.45 2.17 31.31 31.31 0 011.6 5.03c1.46 6.71.32 13.45-3.42 20.2a25.12 25.12 0 01-4.38 5.85 19.46 19.46 0 01-5.63 3.87h-.02l-.02.01a24.47 24.47 0 01-3.43 1.24 23.82 23.82 0 01-9.25.68h-.02a32.51 32.51 0 01-3.56-.62c-3-.7-5.88-1.81-8.63-3.34l-31.85-17.65a8.15 8.15 0 01-2.5-2.1 8.05 8.05 0 01-1.44-2.94l-.01-.04a8.78 8.78 0 01-.28-1.8 8.25 8.25 0 011.08-4.44 8.06 8.06 0 014.93-3.96 8.06 8.06 0 016.28.75l29.85 16.56h.04a39.58 39.58 0 003.57 1.74c2.68 1.1 4.94 1.52 6.78 1.27h.01a5.58 5.58 0 001.77-.58h.01c1.63-.82 3.14-2.48 4.52-4.97l.01-.03.01-.02a20.82 20.82 0 001.28-2.76c.8-2.23 1.03-4.41.68-6.53v-.03a24 24 0 00-.62-2.72 31.64 31.64 0 00-2.78-6.64l-32.54-18.03a8.14 8.14 0 01-2.5-2.1 8.33 8.33 0 01-1.67-6.14 8.49 8.49 0 011.02-3.06v-.02l.02-.01a9.45 9.45 0 011.03-1.5 7.94 7.94 0 013.89-2.45 8.01 8.01 0 016.27.76l29.86 16.55a28.22 28.22 0 006.03 2.59c1.65.45 3.1.6 4.35.42a6.26 6.26 0 003.16-1.49 14.3 14.3 0 003.18-4.09 17.09 17.09 0 001.85-4.83c.32-1.52.35-3 .1-4.48v-.03a24 24 0 00-.6-2.72 31.64 31.64 0 00-2.8-6.63L848 623.66a8.14 8.14 0 01-2.5-2.1 8.06 8.06 0 01-1.44-2.93v-.04a8.8 8.8 0 01-.28-1.8 8.25 8.25 0 011.07-4.43zM785 708.19a9.48 9.48 0 016.42-3.62h.04a10.57 10.57 0 012.12-.03c1.8.17 3.46.83 4.94 1.99l.6.47h.01l.02.02a10.12 10.12 0 011.52 1.48 9.36 9.36 0 012.07 4.92 9.46 9.46 0 01-1.96 7.1l-.78 1-.03.03a10.6 10.6 0 01-1.47 1.51 9.38 9.38 0 01-4.92 2.07 9.48 9.48 0 01-7.1-1.96l-.6-.46a9.49 9.49 0 01-3.62-6.42 9.5 9.5 0 011.96-7.1l.78-1z"/></svg>